<svg width="50" height="94" viewBox="0 0 50 94" fill="none" xmlns="http://www.w3.org/2000/svg">
<path d="M32.1868 2.27057C31.167 1.21429 30.0125 0.573534 28.9763 0.488636C28.4626 0.440228 27.9922 0.528852 27.5916 0.749493L12.4405 9.49696C11.6369 9.96095 11.1733 10.9379 11.1517 12.213C11.1301 13.488 11.5524 14.9566 12.3256 16.2958C13.0987 17.635 14.1595 18.735 15.2745 19.3539C16.3895 19.9727 17.4674 20.0597 18.271 19.5957L26.1193 15.0645L25.4767 53.0702L5.88695 42.1631C5.33201 41.8525 4.77999 41.6703 4.26272 41.6271C3.74546 41.584 3.27319 41.6807 2.87317 41.9116C2.47315 42.1426 2.15328 42.5032 1.93203 42.9728C1.71077 43.4423 1.5925 44.0115 1.58405 44.6474L0.894338 85.4406C0.881332 86.074 0.97833 86.7626 1.17974 87.4667C1.38115 88.1708 1.68299 88.8765 2.06784 89.5431C2.45269 90.2097 2.91293 90.824 3.42202 91.3504C3.93111 91.8769 4.47897 92.3053 5.034 92.6107C5.58894 92.9213 6.14097 93.1035 6.65823 93.1466C7.17549 93.1898 7.64776 93.0931 8.04778 92.8621C8.4478 92.6312 8.76767 92.2705 8.98893 91.801C9.21018 91.3315 9.32844 90.7623 9.3369 90.1264L9.91585 54.1099L29.5056 65.017C30.0605 65.3276 30.6126 65.5098 31.1298 65.5529C31.6471 65.5961 32.1193 65.4994 32.5194 65.2685C32.9194 65.0375 33.2393 64.6769 33.4605 64.2073C33.6818 63.7378 33.8 63.1686 33.8085 62.5327L34.5024 19.7174L42.0529 32.7952C42.8261 34.1344 43.8868 35.2344 45.0018 35.8533C46.1168 36.4721 47.1947 36.5591 47.9984 36.0951C48.802 35.6311 49.2656 34.6541 49.2872 33.3791C49.3088 32.1041 48.8865 30.6354 48.1133 29.2962L33.537 4.04937C33.1513 3.3923 32.6926 2.78798 32.1868 2.27057Z" fill="#4ECB71"/>
</svg>
